<svg width="1024" height="1024" viewBox="0 0 1024 1024" fill="none" xmlns="http://www.w3.org/2000/svg">
<g clip-path="url(#clip0_6056_31)">
<g filter="url(#filter0_d_6056_31)">
<path d="M207.546 85.1623L849.723 40.7603C962.455 35.9962 1024.16 87.0184 1019.33 177.402L973.08 794.531C966.031 884.913 909.794 957.299 827.735 968.078L130.507 1015.02C48.446 1024.52 -4.23916 969.646 5.23065 883.514L62.2348 239.354C72.8836 157.336 129.377 98.6455 207.546 85.1623Z" fill="#070912"/>
<path d="M849.866 43.2566C905.872 40.8958 948.777 52.4141 977.038 75.3423C1005.21 98.1991 1019.21 132.707 1016.84 177.261L970.587 794.337C963.607 883.836 908.038 954.967 827.484 965.588L130.338 1012.53L130.22 1012.54C89.8104 1017.22 56.9558 1006.03 35.3527 983.402C13.7331 960.759 3.04125 926.304 7.71566 883.787C7.71759 883.77 7.7189 883.751 7.72046 883.734L64.7206 239.623C75.2433 158.737 130.865 100.975 207.852 87.6462L849.866 43.2566Z" stroke="url(#paint0_linear_6056_31)" stroke-opacity="0.5" stroke-width="5" stroke-linecap="round" stroke-linejoin="round"/>
</g>
<path d="M522.866 793.891C522.112 782.932 530.394 773.431 541.387 772.644L856.75 750.061C867.759 749.273 877.318 757.55 878.073 768.525C878.824 779.446 870.572 788.914 859.617 789.698L544.114 812.291C533.144 813.076 523.618 804.828 522.866 793.891Z" fill="#1599B5"/>
<path d="M91.9289 822.501C91.1594 811.552 99.4411 802.057 110.427 801.292L458.959 777.042C469.944 776.278 479.474 784.534 480.243 795.483C481.012 806.432 472.731 815.928 461.745 816.692L113.213 840.942C102.228 841.707 92.6983 833.45 91.9289 822.501Z" fill="#252A42"/>
<path d="M601.335 236.888C607.112 226.565 619.196 220.2 629.512 222.039C641.792 224.228 646.582 237.001 639.72 249.296L425.79 632.616C419.808 643.334 407.417 650.004 396.927 648.145C384.491 645.94 379.806 632.804 386.913 620.102L601.335 236.888Z" fill="url(#paint1_linear_6056_31)"/>
<path d="M344.567 302.527C355.315 293.003 370.12 291.878 377.562 300.012C384.932 308.068 382.31 322.188 371.674 331.637L252.384 437.623C239.406 449.153 236.425 466.472 245.826 475.848L334.128 563.923C341.776 571.552 339.883 585.524 329.841 595.455C319.414 605.767 304.236 607.771 296.241 599.883L237.75 542.178L179.258 484.473C174.705 479.98 172.842 473.344 174.098 466.095L174.7 462.62C175.951 455.393 180.196 448.18 186.457 442.632L344.567 302.527Z" fill="url(#paint2_linear_6056_31)"/>
<path d="M695.438 275.634C705.489 265.899 720.106 264.205 728.012 271.853L843.524 383.596C848.068 387.992 850.089 394.47 849.123 401.548L848.658 404.952C847.689 412.052 843.798 419.148 837.878 424.604L684.809 565.683C674.278 575.389 659.527 576.473 652.154 568.077C645.048 559.985 647.464 546.076 657.591 536.703L773.905 429.05C786.224 417.65 788.564 400.634 779.095 391.47L691.593 306.79C683.751 299.201 685.475 285.283 695.438 275.634Z" fill="url(#paint3_linear_6056_31)"/>
</g>
<defs>
<filter id="filter0_d_6056_31" x="-4.94171" y="40.4539" width="1033.61" height="993.785" filterUnits="userSpaceOnUse" color-interpolation-filters="sRGB">
<feFlood flood-opacity="0" result="BackgroundImageFix"/>
<feColorMatrix in="SourceAlpha" type="matrix" values="0 0 0 0 0 0 0 0 0 0 0 0 0 0 0 0 0 0 127 0" result="hardAlpha"/>
<feOffset dy="9.07531"/>
<feGaussianBlur stdDeviation="4.53766"/>
<feComposite in2="hardAlpha" operator="out"/>
<feColorMatrix type="matrix" values="0 0 0 0 0 0 0 0 0 0 0 0 0 0 0 0 0 0 0.25 0"/>
<feBlend mode="normal" in2="BackgroundImageFix" result="effect1_dropShadow_6056_31"/>
<feBlend mode="normal" in="SourceGraphic" in2="effect1_dropShadow_6056_31" result="shape"/>
</filter>
<linearGradient id="paint0_linear_6056_31" x1="512.732" y1="-19.458" x2="475.661" y2="1042.1" gradientUnits="userSpaceOnUse">
<stop stop-color="#7B2FF7"/>
<stop offset="1" stop-color="#3A2FD8"/>
</linearGradient>
<linearGradient id="paint1_linear_6056_31" x1="419.857" y1="167.838" x2="708.385" y2="701.162" gradientUnits="userSpaceOnUse">
<stop stop-color="#7B2FF7"/>
<stop offset="0.45272" stop-color="#4F46FF"/>
<stop offset="1" stop-color="#1E6BFF"/>
</linearGradient>
<linearGradient id="paint2_linear_6056_31" x1="419.857" y1="167.838" x2="708.385" y2="701.162" gradientUnits="userSpaceOnUse">
<stop stop-color="#7B2FF7"/>
<stop offset="0.45272" stop-color="#4F46FF"/>
<stop offset="1" stop-color="#1E6BFF"/>
</linearGradient>
<linearGradient id="paint3_linear_6056_31" x1="419.857" y1="167.838" x2="708.385" y2="701.162" gradientUnits="userSpaceOnUse">
<stop stop-color="#7B2FF7"/>
<stop offset="0.45272" stop-color="#4F46FF"/>
<stop offset="1" stop-color="#1E6BFF"/>
</linearGradient>
<clipPath id="clip0_6056_31">
<rect width="1024" height="1024" fill="white"/>
</clipPath>
</defs>
</svg>
