<svg width="1024" height="1024" viewBox="0 0 1024 1024" fill="none" xmlns="http://www.w3.org/2000/svg">
<mask id="mask0_6013_266" style="mask-type:alpha" maskUnits="userSpaceOnUse" x="32" y="227" width="983" height="682">
<path d="M348.666 246.864L896.295 231.401C972.593 228.948 1023.13 286.513 1007.72 350.375L896.247 799.164C879.184 863.45 820.947 904.424 748.499 904.341L137.424 884.619C65.4437 881.576 21.7197 830.757 41.7 769.859L175.258 339.744C194.301 284.766 282.984 247.636 348.666 246.864Z" fill="url(#paint0_linear_6013_266)" stroke="white" stroke-opacity="0.15" stroke-width="8.4" stroke-linecap="round" stroke-linejoin="round"/>
</mask>
<g mask="url(#mask0_6013_266)">
<path d="M348.666 246.864L896.295 231.401C972.593 228.948 1023.13 286.513 1007.72 350.375L896.247 799.164C879.184 863.45 820.947 904.424 748.499 904.341L137.424 884.619C65.4437 881.576 21.7197 830.757 41.7 769.859L175.258 339.744C194.301 284.766 282.984 247.636 348.666 246.864Z" fill="url(#paint1_linear_6013_266)" stroke="white" stroke-opacity="0.15" stroke-width="8.4" stroke-linecap="round" stroke-linejoin="round"/>
<g filter="url(#filter0_f_6013_266)">
<path d="M360.291 204.142L859.951 182.76C929.152 179.416 971.747 232.263 959.187 299.269L860.029 784.03C845.791 851.036 791.353 897.048 725.714 897.734L146.166 892.858C80.5263 893.544 42.8661 838.442 59.6493 774.905L194.427 301.134C210.702 240.662 297.707 205.233 360.291 204.142Z" fill="black" fill-opacity="0.65"/>
<path d="M360.291 204.142L859.951 182.76C929.152 179.416 971.747 232.263 959.187 299.269L860.029 784.03C845.791 851.036 791.353 897.048 725.714 897.734L146.166 892.858C80.5263 893.544 42.8661 838.442 59.6493 774.905L194.427 301.134C210.702 240.662 297.707 205.233 360.291 204.142Z" stroke="black" stroke-opacity="0.2" stroke-width="8.4" stroke-linecap="round" stroke-linejoin="round"/>
</g>
</g>
<mask id="mask1_6013_266" style="mask-type:alpha" maskUnits="userSpaceOnUse" x="31" y="166" width="915" height="725">
<path d="M340.13 192.387L839.791 171.005C908.992 167.661 951.587 220.508 939.027 287.514L839.869 772.275C825.631 839.281 771.193 885.293 705.554 885.979L126.006 881.103C60.3663 881.789 22.7061 826.687 39.4893 763.15L174.267 289.379C190.542 228.907 277.547 193.478 340.13 192.387Z" fill="url(#paint2_linear_6013_266)" stroke="white" stroke-opacity="0.15" stroke-width="8.4" stroke-linecap="round" stroke-linejoin="round"/>
</mask>
<g mask="url(#mask1_6013_266)">
<path d="M340.13 192.387L839.791 171.005C908.992 167.661 951.587 220.508 939.027 287.514L839.869 772.275C825.631 839.281 771.193 885.293 705.554 885.979L126.006 881.103C60.3663 881.789 22.7061 826.687 39.4893 763.15L174.267 289.379C190.542 228.907 277.547 193.478 340.13 192.387Z" fill="url(#paint3_linear_6013_266)" stroke="white" stroke-opacity="0.15" stroke-width="8.4" stroke-linecap="round" stroke-linejoin="round"/>
<g filter="url(#filter1_f_6013_266)">
<path d="M296.096 185.982L776.631 138.394C843.158 131.415 887.171 182.733 878.933 251.445L810.898 748.35C800.98 817.061 751.11 866.561 687.863 870.658L128.812 895.749C65.565 899.846 26.1232 845.9 38.6907 780.576L141.695 292.971C153.946 230.782 235.817 190.332 296.096 185.982Z" fill="black" fill-opacity="0.65"/>
<path d="M296.096 185.982L776.631 138.394C843.158 131.415 887.171 182.733 878.933 251.445L810.898 748.35C800.98 817.061 751.11 866.561 687.863 870.658L128.812 895.749C65.565 899.846 26.1232 845.9 38.6907 780.576L141.695 292.971C153.946 230.782 235.817 190.332 296.096 185.982Z" stroke="black" stroke-opacity="0.2" stroke-width="8.4" stroke-linecap="round" stroke-linejoin="round"/>
</g>
</g>
<mask id="mask2_6013_266" style="mask-type:alpha" maskUnits="userSpaceOnUse" x="13" y="116" width="853" height="768">
<path d="M277.617 169.179L758.151 121.591C824.679 114.612 868.691 165.93 860.454 234.641L792.419 731.546C782.501 800.258 732.631 849.757 669.384 853.854L110.333 878.946C47.0856 883.043 7.64369 829.097 20.2112 763.773L123.215 276.168C135.466 213.979 217.337 173.529 277.617 169.179Z" fill="url(#paint4_linear_6013_266)" stroke="white" stroke-opacity="0.15" stroke-width="8.4" stroke-linejoin="round"/>
</mask>
<g mask="url(#mask2_6013_266)">
<path d="M277.617 169.179L758.151 121.591C824.679 114.612 868.691 165.93 860.454 234.641L792.419 731.546C782.501 800.258 732.631 849.757 669.384 853.854L110.333 878.946C47.0856 883.043 7.64369 829.097 20.2112 763.773L123.215 276.168C135.466 213.979 217.337 173.529 277.617 169.179Z" fill="url(#paint5_linear_6013_266)" stroke="white" stroke-opacity="0.15" stroke-width="8.4" stroke-linejoin="round"/>
<g filter="url(#filter2_f_6013_266)">
<path d="M181.109 170.343L667.066 95.9695C752.377 82.0632 799.018 131.831 795.297 202.159L759.816 713.928C754.416 784.257 711.818 833.84 649.72 841.288L122.128 886.119C60.031 893.568 19.2085 850.912 27.4383 783.888L71.0525 282.644C79.1713 218.82 121.953 177.893 181.109 170.343Z" fill="black" fill-opacity="0.65"/>
</g>
</g>
<g filter="url(#filter3_d_6013_266)">
<path d="M161.942 158.496L647.9 84.1225C733.211 70.2163 779.852 119.984 776.131 190.312L740.65 702.081C735.249 772.41 692.651 821.993 630.554 829.441L102.962 874.272C40.8649 881.721 0.0423906 839.065 8.27215 772.041L51.8864 270.797C60.0051 206.973 102.787 166.046 161.942 158.496Z" fill="#070912"/>
<path d="M648.306 86.6101C690.42 79.7452 722.575 88.6478 743.725 107.511C764.878 126.376 775.436 155.568 773.617 190.138L738.138 701.889C732.812 771.238 690.955 819.641 630.288 826.934L102.749 871.762L102.662 871.77C72.2616 875.417 47.3809 866.785 31.0855 849.362C14.7713 831.919 6.7269 805.305 10.7735 772.349C10.7772 772.319 10.7799 772.289 10.7825 772.26L54.3909 271.077C62.3773 208.41 104.261 168.399 162.261 160.996C162.282 160.994 162.303 160.991 162.324 160.988L648.281 86.6131C648.289 86.6119 648.298 86.6114 648.306 86.6101Z" stroke="url(#paint6_linear_6013_266)" stroke-opacity="0.9" stroke-width="5.04" stroke-linecap="round" stroke-linejoin="round"/>
</g>
<path d="M387.999 715.785C387.233 708.396 392.588 701.779 399.975 700.988L611.877 678.281C619.275 677.489 625.908 682.857 626.675 690.258C627.438 697.621 622.102 704.215 614.741 705.003L402.745 727.72C395.373 728.51 388.763 723.16 387.999 715.785Z" fill="#1599B5" stroke="black" stroke-opacity="0.5" stroke-width="1.68"/>
<rect x="96.981" y="731.927" width="262.376" height="26.88" rx="13.44" transform="rotate(-6 96.981 731.927)" fill="#252A42" stroke="black" stroke-opacity="0.5" stroke-width="1.68"/>
<rect x="450.191" y="625.169" width="201.947" height="26.88" rx="13.44" transform="rotate(-6 450.191 625.169)" fill="#2E3350" stroke="black" stroke-opacity="0.5" stroke-width="1.68"/>
<rect x="102.985" y="661.442" width="321.138" height="26.88" rx="13.44" transform="rotate(-6 102.985 661.442)" fill="#4A4566" stroke="black" stroke-opacity="0.5" stroke-width="1.68"/>
<path d="M325.835 581.345C325.051 573.951 330.419 567.325 337.815 566.558L573.068 542.159C580.44 541.395 587.04 546.741 587.822 554.112C588.606 561.506 583.238 568.132 575.842 568.899L340.588 593.297C333.216 594.062 326.616 588.715 325.835 581.345Z" fill="#2E3350" stroke="black" stroke-opacity="0.5" stroke-width="1.68"/>
<rect opacity="0.3" x="108.822" y="590.975" width="188.145" height="26.88" rx="13.44" transform="rotate(-6 108.822 590.975)" fill="#4A4566" stroke="black" stroke-opacity="0.5" stroke-width="1.68"/>
<path d="M444.241 221.112C447.667 214.17 455.357 209.597 462.171 210.446C470.282 211.456 473.855 219.637 469.786 227.904L342.933 485.671C339.386 492.878 331.506 497.66 324.578 496.805C316.363 495.79 312.847 487.368 317.063 478.826L444.241 221.112Z" fill="url(#paint7_linear_6013_266)"/>
<path d="M278.459 272.789C285.165 266.199 294.816 264.956 299.965 270.016C305.064 275.027 303.832 284.342 297.197 290.88L222.766 364.21C214.668 372.187 213.311 383.605 219.785 389.409L280.592 443.929C285.859 448.651 285.099 457.845 278.868 464.677C272.398 471.771 262.534 473.6 257.032 468.721L216.775 433.022L176.518 397.323C173.384 394.544 171.937 390.272 172.511 385.493L172.785 383.201C173.357 378.437 175.887 373.579 179.794 369.74L278.459 272.789Z" fill="url(#paint8_linear_6013_266)"/>
<path d="M507.152 243.205C513.396 236.5 522.904 234.893 528.339 239.619L607.765 308.671C610.889 311.387 612.434 315.551 612.045 320.208L611.858 322.448C611.467 327.12 609.164 331.889 605.477 335.656L510.145 433.071C503.586 439.773 493.97 440.987 488.857 435.754C483.928 430.71 485.032 421.54 491.338 415.069L563.765 340.752C571.435 332.882 572.383 321.684 565.872 316.021L505.705 263.692C500.313 259.002 500.963 249.85 507.152 243.205Z" fill="url(#paint9_linear_6013_266)"/>
<path d="M442.734 220.369C446.424 212.893 454.743 207.828 462.379 208.778C467.003 209.354 470.442 212.015 472.086 215.781C473.714 219.513 473.508 224.147 471.294 228.646L344.44 486.413C340.641 494.134 332.142 499.431 324.372 498.472C319.679 497.892 316.226 495.154 314.609 491.286C313.01 487.46 313.274 482.707 315.557 478.082L442.734 220.369ZM289.581 265.367C293.863 264.815 298.12 265.847 301.142 268.817C307.192 274.762 305.36 285.196 298.376 292.077L223.945 365.406C220.14 369.155 217.972 373.662 217.479 377.822C216.988 381.975 218.158 385.694 220.906 388.158L281.714 442.678C287.969 448.286 286.666 458.619 280.109 465.809C276.644 469.608 272.239 472.036 267.893 472.841C263.552 473.645 259.145 472.84 255.917 469.978L215.66 434.278L175.403 398.58C171.79 395.376 170.215 390.524 170.843 385.292L171.117 383.001C171.74 377.805 174.478 372.608 178.616 368.542L277.281 271.591C280.876 268.058 285.297 265.919 289.581 265.367ZM505.923 242.06C512.526 234.97 523.069 232.811 529.441 238.351L608.867 307.403C612.452 310.52 614.146 315.235 613.719 320.348L613.532 322.588C613.105 327.698 610.602 332.821 606.678 336.831L511.346 434.246C504.426 441.317 493.691 443.105 487.655 436.928C481.844 430.98 483.471 420.735 490.135 413.896L562.561 339.579C569.861 332.089 570.261 322.066 564.769 317.289L504.602 264.96C498.212 259.402 499.372 249.093 505.923 242.06Z" stroke="url(#paint10_linear_6013_266)" stroke-opacity="0.975" stroke-width="3.36"/>
<defs>
<filter id="filter0_f_6013_266" x="43.0656" y="170.011" width="930.911" height="740.321" filterUnits="userSpaceOnUse" color-interpolation-filters="sRGB">
<feFlood flood-opacity="0" result="BackgroundImageFix"/>
<feBlend mode="normal" in="SourceGraphic" in2="BackgroundImageFix" result="shape"/>
<feGaussianBlur stdDeviation="4.2" result="effect1_foregroundBlur_6013_266"/>
</filter>
<filter id="filter1_f_6013_266" x="23.7616" y="125.159" width="868.76" height="783.409" filterUnits="userSpaceOnUse" color-interpolation-filters="sRGB">
<feFlood flood-opacity="0" result="BackgroundImageFix"/>
<feBlend mode="normal" in="SourceGraphic" in2="BackgroundImageFix" result="shape"/>
<feGaussianBlur stdDeviation="4.2" result="effect1_foregroundBlur_6013_266"/>
</filter>
<filter id="filter2_f_6013_266" x="17.9857" y="85.2321" width="785.918" height="810.128" filterUnits="userSpaceOnUse" color-interpolation-filters="sRGB">
<feFlood flood-opacity="0" result="BackgroundImageFix"/>
<feBlend mode="normal" in="SourceGraphic" in2="BackgroundImageFix" result="shape"/>
<feGaussianBlur stdDeviation="4.2" result="effect1_foregroundBlur_6013_266"/>
</filter>
<filter id="filter3_d_6013_266" x="0.499605" y="81.7852" width="782.558" height="806.768" filterUnits="userSpaceOnUse" color-interpolation-filters="sRGB">
<feFlood flood-opacity="0" result="BackgroundImageFix"/>
<feColorMatrix in="SourceAlpha" type="matrix" values="0 0 0 0 0 0 0 0 0 0 0 0 0 0 0 0 0 0 127 0" result="hardAlpha"/>
<feOffset dy="6.72"/>
<feGaussianBlur stdDeviation="3.36"/>
<feComposite in2="hardAlpha" operator="out"/>
<feColorMatrix type="matrix" values="0 0 0 0 0 0 0 0 0 0 0 0 0 0 0 0 0 0 0.25 0"/>
<feBlend mode="normal" in2="BackgroundImageFix" result="effect1_dropShadow_6013_266"/>
<feBlend mode="normal" in="SourceGraphic" in2="effect1_dropShadow_6013_266" result="shape"/>
</filter>
<linearGradient id="paint0_linear_6013_266" x1="583.549" y1="189.987" x2="490.215" y2="929.672" gradientUnits="userSpaceOnUse">
<stop stop-color="#1E6BFF"/>
<stop offset="1" stop-color="#0B3FC4"/>
</linearGradient>
<linearGradient id="paint1_linear_6013_266" x1="583.549" y1="189.987" x2="490.215" y2="929.672" gradientUnits="userSpaceOnUse">
<stop stop-color="#1E6BFF"/>
<stop offset="1" stop-color="#0B3FC4"/>
</linearGradient>
<linearGradient id="paint2_linear_6013_266" x1="554.458" y1="131.119" x2="449.102" y2="925.11" gradientUnits="userSpaceOnUse">
<stop stop-color="#4F46FF"/>
<stop offset="1" stop-color="#1B52E0"/>
</linearGradient>
<linearGradient id="paint3_linear_6013_266" x1="554.458" y1="131.119" x2="449.102" y2="925.11" gradientUnits="userSpaceOnUse">
<stop stop-color="#4F46FF"/>
<stop offset="1" stop-color="#1B52E0"/>
</linearGradient>
<linearGradient id="paint4_linear_6013_266" x1="480.776" y1="95.9165" x2="411.783" y2="905.773" gradientUnits="userSpaceOnUse">
<stop stop-color="#7B2FF7"/>
<stop offset="1" stop-color="#3A2FD8"/>
</linearGradient>
<linearGradient id="paint5_linear_6013_266" x1="480.776" y1="95.9165" x2="411.783" y2="905.773" gradientUnits="userSpaceOnUse">
<stop stop-color="#7B2FF7"/>
<stop offset="1" stop-color="#3A2FD8"/>
</linearGradient>
<linearGradient id="paint6_linear_6013_266" x1="392.943" y1="69.0834" x2="364.098" y2="895.079" gradientUnits="userSpaceOnUse">
<stop stop-color="#7B2FF7"/>
<stop offset="1" stop-color="#3A2FD8"/>
</linearGradient>
<linearGradient id="paint7_linear_6013_266" x1="349.94" y1="254.251" x2="463.829" y2="444.944" gradientUnits="userSpaceOnUse">
<stop stop-color="#7B2FF7"/>
<stop offset="0.45272" stop-color="#4F46FF"/>
<stop offset="1" stop-color="#1E6BFF"/>
</linearGradient>
<linearGradient id="paint8_linear_6013_266" x1="349.94" y1="254.251" x2="463.829" y2="444.944" gradientUnits="userSpaceOnUse">
<stop stop-color="#7B2FF7"/>
<stop offset="0.45272" stop-color="#4F46FF"/>
<stop offset="1" stop-color="#1E6BFF"/>
</linearGradient>
<linearGradient id="paint9_linear_6013_266" x1="349.94" y1="254.251" x2="463.829" y2="444.944" gradientUnits="userSpaceOnUse">
<stop stop-color="#7B2FF7"/>
<stop offset="0.45272" stop-color="#4F46FF"/>
<stop offset="1" stop-color="#1E6BFF"/>
</linearGradient>
<linearGradient id="paint10_linear_6013_266" x1="347.617" y1="258.328" x2="450.097" y2="458.248" gradientUnits="userSpaceOnUse">
<stop stop-color="#7B2FF7"/>
<stop offset="0.458327" stop-color="#4F46FF"/>
<stop offset="1" stop-color="#1E6BFF"/>
</linearGradient>
</defs>
</svg>
