<svg width="4667" height="1024" viewBox="0 0 4667 1024" fill="none" xmlns="http://www.w3.org/2000/svg">
<path d="M1173.8 773.928C1168.94 773.928 1165 769.988 1165 765.128V258.248C1165 253.388 1168.94 249.448 1173.8 249.448H1239.27C1244.13 249.448 1248.07 253.388 1248.07 258.248V691.208C1248.07 696.068 1252.01 700.008 1256.87 700.008H1465.96C1470.82 700.008 1474.76 703.948 1474.76 708.808V765.128C1474.76 769.988 1470.82 773.928 1465.96 773.928H1173.8Z" fill="#E8E9F2"/>
<path d="M1715.57 782.376C1677.56 782.376 1643.76 773.693 1614.2 756.328C1585.1 738.493 1562.33 714.557 1545.91 684.52C1529.48 654.013 1521.27 619.987 1521.27 582.44C1521.27 543.955 1529.48 509.928 1545.91 480.36C1562.8 450.792 1585.33 427.56 1613.49 410.664C1641.65 393.299 1673.57 384.616 1709.24 384.616C1737.87 384.616 1763.44 389.544 1785.97 399.4C1808.5 409.256 1827.51 422.867 1843 440.232C1858.48 457.128 1870.22 476.605 1878.2 498.664C1886.64 520.723 1890.87 544.189 1890.87 569.064C1890.87 575.165 1890.63 581.501 1890.16 588.072C1889.88 592.11 1889.41 595.971 1888.77 599.655C1888.07 603.633 1884.52 606.376 1880.48 606.376H1592.72C1587.86 606.376 1583.92 602.436 1583.92 597.576V551.816C1583.92 546.956 1587.86 543.016 1592.72 543.016H1817.09C1825.22 543.016 1828.69 553.34 1822.22 558.254C1815.99 562.987 1806.71 557.351 1806.86 549.525C1807.14 535.425 1804.64 522.461 1799.35 510.632C1791.84 492.328 1780.11 478.013 1764.15 467.688C1748.66 456.893 1730.36 451.496 1709.24 451.496C1688.12 451.496 1669.34 456.893 1652.92 467.688C1636.49 478.013 1623.82 493.032 1614.9 512.744C1606.06 531.824 1602.52 555.058 1604.29 582.445C1604.32 582.908 1604.32 583.379 1604.28 583.842C1602.06 609.363 1605.6 631.659 1614.9 650.728C1624.76 669.971 1638.37 684.989 1655.73 695.784C1673.57 706.579 1693.75 711.976 1716.28 711.976C1739.27 711.976 1758.75 706.813 1774.71 696.488C1788.73 687.673 1800.19 676.635 1809.08 663.374C1811.67 659.519 1816.67 657.947 1820.84 659.986L1870.72 684.386C1874.92 686.436 1876.81 691.42 1874.71 695.592C1867.24 710.473 1856.67 724.148 1843 736.616C1827.51 750.696 1808.73 761.96 1786.68 770.408C1765.09 778.387 1741.39 782.376 1715.57 782.376Z" fill="#E8E9F2"/>
<path d="M2147.32 782.376C2109.31 782.376 2075.51 773.693 2045.95 756.328C2016.85 738.493 1994.08 714.557 1977.66 684.52C1961.23 654.013 1953.02 619.987 1953.02 582.44C1953.02 543.955 1961.23 509.928 1977.66 480.36C1994.55 450.792 2017.08 427.56 2045.24 410.664C2073.4 393.299 2105.32 384.616 2140.99 384.616C2169.62 384.616 2195.19 389.544 2217.72 399.4C2240.25 409.256 2259.26 422.867 2274.75 440.232C2290.23 457.128 2301.97 476.605 2309.95 498.664C2318.39 520.723 2322.62 544.189 2322.62 569.064C2322.62 575.165 2322.38 581.501 2321.91 588.072C2321.63 592.11 2321.16 595.971 2320.52 599.655C2319.82 603.633 2316.27 606.376 2312.23 606.376H2024.47C2019.61 606.376 2015.67 602.436 2015.67 597.576V551.816C2015.67 546.956 2019.61 543.016 2024.47 543.016H2248.84C2256.97 543.016 2260.44 553.34 2253.97 558.254C2247.74 562.987 2238.46 557.351 2238.61 549.525C2238.89 535.425 2236.39 522.461 2231.1 510.632C2223.59 492.328 2211.86 478.013 2195.9 467.688C2180.41 456.893 2162.11 451.496 2140.99 451.496C2119.87 451.496 2101.09 456.893 2084.67 467.688C2068.24 478.013 2055.57 493.032 2046.65 512.744C2037.81 531.824 2034.27 555.058 2036.04 582.445C2036.07 582.908 2036.07 583.379 2036.03 583.842C2033.81 609.363 2037.35 631.659 2046.65 650.728C2056.51 669.971 2070.12 684.989 2087.48 695.784C2105.32 706.579 2125.5 711.976 2148.03 711.976C2171.02 711.976 2190.5 706.813 2206.46 696.488C2220.48 687.673 2231.94 676.635 2240.83 663.374C2243.42 659.519 2248.42 657.947 2252.59 659.986L2302.47 684.386C2306.67 686.436 2308.56 691.42 2306.46 695.592C2298.99 710.473 2288.42 724.148 2274.75 736.616C2259.26 750.696 2240.48 761.96 2218.43 770.408C2196.84 778.387 2173.14 782.376 2147.32 782.376Z" fill="#E8E9F2"/>
<path d="M2564.99 778.152C2525.1 778.152 2494.12 766.888 2472.06 744.36C2450.01 721.832 2438.98 690.152 2438.98 649.32V473.672C2438.98 468.812 2435.04 464.872 2430.18 464.872H2380.9C2376.04 464.872 2372.1 460.932 2372.1 456.072V401.864C2372.1 397.004 2376.04 393.064 2380.9 393.064H2382.66C2400.49 393.064 2414.34 387.901 2424.19 377.576C2434.05 367.251 2438.98 353.171 2438.98 335.336V314.568C2438.98 309.708 2442.92 305.768 2447.78 305.768H2509.73C2514.59 305.768 2518.53 309.708 2518.53 314.568V384.264C2518.53 389.124 2522.47 393.064 2527.33 393.064H2596.32C2601.18 393.064 2605.12 397.004 2605.12 401.864V456.072C2605.12 460.932 2601.18 464.872 2596.32 464.872H2527.33C2522.47 464.872 2518.53 468.812 2518.53 473.672V645.8C2518.53 658.941 2520.64 670.205 2524.86 679.592C2529.09 688.509 2535.89 695.549 2545.28 700.712C2554.67 705.405 2566.87 707.752 2581.89 707.752C2585.64 707.752 2589.87 707.517 2594.56 707.048C2595.78 706.926 2596.98 706.805 2598.16 706.683C2603.38 706.148 2607.94 710.227 2607.94 715.472V766.296C2607.94 770.675 2604.72 774.392 2600.38 774.967C2595.9 775.559 2591.15 776.152 2586.11 776.744C2578.13 777.683 2571.09 778.152 2564.99 778.152Z" fill="#E8E9F2"/>
<path d="M2937.6 782.376C2900.52 782.376 2866.03 775.571 2834.11 761.96C2802.67 748.349 2775.21 729.576 2751.74 705.64C2728.75 681.235 2710.68 652.605 2697.54 619.752C2684.4 586.899 2677.82 550.76 2677.82 511.336C2677.82 472.381 2684.16 436.477 2696.83 403.624C2709.97 370.301 2728.28 341.672 2751.74 317.736C2775.21 293.331 2802.67 274.557 2834.11 261.416C2865.56 247.805 2900.05 241 2937.6 241C2974.68 241 3007.77 247.336 3036.86 260.008C3066.43 272.68 3091.31 289.341 3111.49 309.992C3129.54 328.046 3143.09 347.602 3152.13 368.66C3153.93 372.863 3151.96 377.668 3147.82 379.619L3088.97 407.38C3084.38 409.543 3078.94 407.382 3076.79 402.793C3065.43 378.551 3048.6 358.647 3026.3 343.08C3001.9 325.245 2972.33 316.328 2937.6 316.328C2902.87 316.328 2872.13 324.541 2845.38 340.968C2818.62 357.395 2797.74 380.157 2782.72 409.256C2768.17 438.355 2760.9 472.381 2760.9 511.336C2760.9 550.291 2768.17 584.552 2782.72 614.12C2797.74 643.219 2818.62 665.981 2845.38 682.408C2872.13 698.365 2902.87 706.344 2937.6 706.344C2972.33 706.344 3001.9 697.661 3026.3 680.296C3048.6 664.729 3065.43 644.825 3076.79 620.583C3078.94 615.994 3084.38 613.833 3088.97 615.996L3147.77 643.734C3151.93 645.695 3153.9 650.534 3152.06 654.744C3143.02 675.412 3129.5 694.958 3111.49 713.384C3091.31 734.035 3066.43 750.696 3036.86 763.368C3007.77 776.04 2974.68 782.376 2937.6 782.376Z" fill="#4F46FF"/>
<path d="M3339.99 782.376C3314.18 782.376 3291.42 777.917 3271.7 769C3252.46 759.613 3237.44 746.941 3226.65 730.984C3215.85 714.557 3210.46 695.315 3210.46 673.256C3210.46 652.605 3214.91 634.067 3223.83 617.64C3233.22 601.213 3247.53 587.368 3266.78 576.104C3286.02 564.84 3310.19 556.861 3339.29 552.168L3461.41 532.031C3466.77 531.147 3471.64 535.282 3471.64 540.714V585.604C3471.64 589.88 3468.57 593.537 3464.35 594.273L3354.78 613.416C3333.66 617.171 3318.17 623.976 3308.31 633.832C3298.46 643.219 3293.53 655.421 3293.53 670.44C3293.53 684.989 3298.92 696.957 3309.72 706.344C3320.98 715.261 3335.3 719.72 3352.66 719.72C3374.25 719.72 3393.03 715.027 3408.98 705.64C3425.41 696.253 3438.08 683.816 3447 668.328C3455.92 652.371 3460.38 634.771 3460.38 615.528V517.672C3460.38 498.899 3453.34 483.645 3439.26 471.912C3425.65 459.709 3407.34 453.608 3384.34 453.608C3363.22 453.608 3344.68 459.24 3328.73 470.504C3315.81 479.509 3305.66 490.801 3298.29 504.379C3295.89 508.819 3290.43 510.843 3285.91 508.584L3235.14 483.199C3231.11 481.185 3229.22 476.438 3231.08 472.335C3238.21 456.582 3248.7 442.595 3262.55 430.376C3278.51 415.827 3297.05 404.563 3318.17 396.584C3339.76 388.605 3362.52 384.616 3386.46 384.616C3416.49 384.616 3443.01 390.248 3466.01 401.512C3489.47 412.776 3507.54 428.499 3520.22 448.68C3533.36 468.392 3539.93 491.389 3539.93 517.672V765.128C3539.93 769.988 3535.99 773.928 3531.13 773.928H3472.7C3467.84 773.928 3463.9 769.988 3463.9 765.128V711.992C3463.9 708.252 3467.18 705.365 3470.89 705.849C3475.27 706.42 3477.65 711.253 3475.21 714.93C3467.1 727.12 3457.23 737.869 3445.59 747.176C3431.98 758.44 3416.26 767.123 3398.42 773.224C3381.06 779.325 3361.58 782.376 3339.99 782.376Z" fill="#4F46FF"/>
<path d="M3641.74 773.928C3636.88 773.928 3632.94 769.988 3632.94 765.128V401.864C3632.94 397.004 3636.88 393.064 3641.74 393.064H3700.18C3705.04 393.064 3708.98 397.004 3708.98 401.864V458.108C3708.98 461.477 3704.56 462.742 3702.78 459.885C3702.25 459.031 3702.12 457.979 3702.46 457.029C3710.94 432.94 3724.38 415.607 3742.77 405.032C3761.54 393.768 3784.07 388.136 3810.35 388.136H3824.78C3829.64 388.136 3833.58 392.076 3833.58 396.936V451.848C3833.58 456.708 3829.64 460.648 3824.78 460.648H3800.5C3774.21 460.648 3752.86 468.861 3736.43 485.288C3720.47 501.245 3712.5 524.243 3712.5 554.28V765.128C3712.5 769.988 3708.56 773.928 3703.7 773.928H3641.74Z" fill="#4F46FF"/>
<path d="M4064.01 782.376C4027.4 782.376 3994.54 773.693 3965.45 756.328C3936.82 738.493 3914.05 714.557 3897.16 684.52C3880.73 654.483 3872.52 620.691 3872.52 583.144C3872.52 545.597 3880.97 511.805 3897.86 481.768C3914.76 451.731 3937.52 428.029 3966.15 410.664C3994.78 393.299 4027.16 384.616 4063.3 384.616C4093.81 384.616 4120.8 390.717 4144.26 402.92C4166.65 414.562 4184.55 430.475 4197.97 450.66C4199.15 452.441 4199.13 454.756 4197.96 456.547C4194.98 461.097 4187.91 458.99 4187.91 453.554V249.8C4187.91 244.94 4191.85 241 4196.71 241H4257.96C4262.82 241 4266.76 244.94 4266.76 249.8V765.128C4266.76 769.988 4262.82 773.928 4257.96 773.928H4200.23C4195.37 773.928 4191.43 769.988 4191.43 765.128V711.359C4191.43 707.099 4197.02 705.51 4199.26 709.132C4200.07 710.451 4200.11 712.114 4199.31 713.446C4186.24 735.381 4167.89 752.257 4144.26 764.072C4119.86 776.275 4093.1 782.376 4064.01 782.376ZM4071.75 708.456C4093.81 708.456 4113.52 703.059 4130.89 692.264C4148.72 681.469 4162.57 666.685 4172.42 647.912C4182.75 628.669 4187.91 607.08 4187.91 583.144C4187.91 559.208 4182.75 537.853 4172.42 519.08C4162.57 500.307 4148.72 485.523 4130.89 474.728C4113.52 463.933 4093.81 458.536 4071.75 458.536C4049.69 458.536 4029.74 463.933 4011.91 474.728C3994.08 485.523 3980.23 500.307 3970.37 519.08C3960.52 537.853 3955.59 559.208 3955.59 583.144C3955.59 607.08 3960.52 628.669 3970.37 647.912C3980.23 666.685 3993.84 681.469 4011.21 692.264C4029.04 703.059 4049.22 708.456 4071.75 708.456Z" fill="#4F46FF"/>
<path d="M4500.43 782.376C4461.48 782.376 4427.21 772.755 4397.65 753.512C4370.82 735.774 4351.38 712.451 4339.31 683.546C4337.56 679.352 4339.54 674.591 4343.65 672.654L4389.73 650.938C4394.11 648.875 4399.31 650.75 4401.64 654.993C4411.5 672.955 4424.25 687.491 4439.89 698.6C4458.19 711.272 4478.37 717.608 4500.43 717.608C4519.2 717.608 4534.46 713.384 4546.19 704.936C4557.92 696.488 4563.79 684.989 4563.79 670.44C4563.79 661.053 4561.21 653.544 4556.05 647.912C4550.88 641.811 4544.31 636.883 4536.33 633.128C4528.83 629.373 4521.08 626.557 4513.1 624.68L4453.26 607.784C4420.41 598.397 4395.77 584.317 4379.34 565.544C4363.39 546.301 4355.41 524.008 4355.41 498.664C4355.41 475.667 4361.27 455.72 4373.01 438.824C4384.74 421.459 4400.93 408.083 4421.58 398.696C4442.23 389.309 4465.47 384.616 4491.28 384.616C4526.01 384.616 4556.99 393.299 4584.21 410.664C4609.16 426.15 4627.4 447.352 4638.95 474.272C4640.75 478.467 4638.77 483.262 4634.64 485.208L4589.06 506.684C4584.51 508.831 4579.12 506.7 4576.79 502.233C4569.28 487.822 4558.61 476.072 4544.78 466.984C4528.83 456.189 4510.76 450.792 4490.57 450.792C4473.21 450.792 4459.36 455.016 4449.04 463.464C4438.71 471.443 4433.55 482.003 4433.55 495.144C4433.55 504.061 4435.9 511.571 4440.59 517.672C4445.28 523.304 4451.39 527.997 4458.9 531.752C4466.4 535.037 4474.15 537.853 4482.13 540.2L4544.08 558.504C4575.52 567.421 4599.69 581.501 4616.59 600.744C4633.49 619.517 4641.94 642.045 4641.94 668.328C4641.94 690.856 4635.83 710.803 4623.63 728.168C4611.9 745.064 4595.47 758.44 4574.35 768.296C4553.23 777.683 4528.59 782.376 4500.43 782.376Z" fill="#4F46FF"/>
<mask id="mask0_6021_240" style="mask-type:alpha" maskUnits="userSpaceOnUse" x="32" y="227" width="983" height="682">
<path d="M348.666 246.864L896.295 231.401C972.593 228.948 1023.13 286.513 1007.72 350.375L896.247 799.164C879.184 863.45 820.947 904.424 748.499 904.341L137.424 884.619C65.4437 881.576 21.7197 830.757 41.7 769.859L175.258 339.744C194.301 284.766 282.984 247.636 348.666 246.864Z" fill="url(#paint0_linear_6021_240)" stroke="white" stroke-opacity="0.15" stroke-width="8.4" stroke-linecap="round" stroke-linejoin="round"/>
</mask>
<g mask="url(#mask0_6021_240)">
<path d="M348.666 246.864L896.295 231.401C972.593 228.948 1023.13 286.513 1007.72 350.375L896.247 799.164C879.184 863.45 820.947 904.424 748.499 904.341L137.424 884.619C65.4437 881.576 21.7197 830.757 41.7 769.859L175.258 339.744C194.301 284.766 282.984 247.636 348.666 246.864Z" fill="url(#paint1_linear_6021_240)" stroke="white" stroke-opacity="0.15" stroke-width="8.4" stroke-linecap="round" stroke-linejoin="round"/>
<g filter="url(#filter0_f_6021_240)">
<path d="M360.291 204.142L859.951 182.76C929.152 179.416 971.747 232.263 959.187 299.269L860.029 784.03C845.791 851.036 791.353 897.048 725.714 897.734L146.166 892.858C80.5263 893.544 42.8661 838.442 59.6493 774.905L194.427 301.134C210.702 240.662 297.707 205.233 360.291 204.142Z" fill="black" fill-opacity="0.65"/>
<path d="M360.291 204.142L859.951 182.76C929.152 179.416 971.747 232.263 959.187 299.269L860.029 784.03C845.791 851.036 791.353 897.048 725.714 897.734L146.166 892.858C80.5263 893.544 42.8661 838.442 59.6493 774.905L194.427 301.134C210.702 240.662 297.707 205.233 360.291 204.142Z" stroke="black" stroke-opacity="0.2" stroke-width="8.4" stroke-linecap="round" stroke-linejoin="round"/>
</g>
</g>
<mask id="mask1_6021_240" style="mask-type:alpha" maskUnits="userSpaceOnUse" x="31" y="166" width="915" height="725">
<path d="M340.131 192.387L839.791 171.005C908.992 167.661 951.587 220.508 939.027 287.514L839.869 772.275C825.631 839.281 771.193 885.293 705.554 885.979L126.006 881.103C60.3663 881.789 22.7062 826.687 39.4894 763.15L174.267 289.379C190.542 228.907 277.547 193.478 340.131 192.387Z" fill="url(#paint2_linear_6021_240)" stroke="white" stroke-opacity="0.15" stroke-width="8.4" stroke-linecap="round" stroke-linejoin="round"/>
</mask>
<g mask="url(#mask1_6021_240)">
<path d="M340.131 192.387L839.791 171.005C908.992 167.661 951.587 220.508 939.027 287.514L839.869 772.275C825.631 839.281 771.193 885.293 705.554 885.979L126.006 881.103C60.3663 881.789 22.7062 826.687 39.4894 763.15L174.267 289.379C190.542 228.907 277.547 193.478 340.131 192.387Z" fill="url(#paint3_linear_6021_240)" stroke="white" stroke-opacity="0.15" stroke-width="8.4" stroke-linecap="round" stroke-linejoin="round"/>
<g filter="url(#filter1_f_6021_240)">
<path d="M296.096 185.982L776.631 138.394C843.158 131.415 887.171 182.733 878.933 251.445L810.898 748.35C800.98 817.061 751.11 866.561 687.863 870.658L128.812 895.749C65.565 899.846 26.1232 845.9 38.6907 780.576L141.695 292.971C153.946 230.782 235.817 190.332 296.096 185.982Z" fill="black" fill-opacity="0.65"/>
<path d="M296.096 185.982L776.631 138.394C843.158 131.415 887.171 182.733 878.933 251.445L810.898 748.35C800.98 817.061 751.11 866.561 687.863 870.658L128.812 895.749C65.565 899.846 26.1232 845.9 38.6907 780.576L141.695 292.971C153.946 230.782 235.817 190.332 296.096 185.982Z" stroke="black" stroke-opacity="0.2" stroke-width="8.4" stroke-linecap="round" stroke-linejoin="round"/>
</g>
</g>
<mask id="mask2_6021_240" style="mask-type:alpha" maskUnits="userSpaceOnUse" x="13" y="116" width="853" height="768">
<path d="M277.616 169.179L758.151 121.591C824.679 114.612 868.691 165.93 860.453 234.641L792.419 731.546C782.501 800.258 732.631 849.757 669.383 853.854L110.333 878.946C47.0854 883.043 7.64359 829.097 20.2111 763.773L123.215 276.168C135.466 213.979 217.337 173.529 277.616 169.179Z" fill="url(#paint4_linear_6021_240)" stroke="white" stroke-opacity="0.15" stroke-width="8.4" stroke-linejoin="round"/>
</mask>
<g mask="url(#mask2_6021_240)">
<path d="M277.616 169.179L758.151 121.591C824.679 114.612 868.691 165.93 860.453 234.641L792.419 731.546C782.501 800.258 732.631 849.757 669.383 853.854L110.333 878.946C47.0854 883.043 7.64359 829.097 20.2111 763.773L123.215 276.168C135.466 213.979 217.337 173.529 277.616 169.179Z" fill="url(#paint5_linear_6021_240)" stroke="white" stroke-opacity="0.15" stroke-width="8.4" stroke-linejoin="round"/>
<g filter="url(#filter2_f_6021_240)">
<path d="M181.109 170.343L667.066 95.9695C752.377 82.0632 799.018 131.831 795.297 202.159L759.816 713.928C754.416 784.257 711.818 833.84 649.72 841.288L122.128 886.119C60.031 893.568 19.2085 850.912 27.4383 783.888L71.0525 282.644C79.1712 218.82 121.953 177.893 181.109 170.343Z" fill="black" fill-opacity="0.65"/>
</g>
</g>
<g filter="url(#filter3_d_6021_240)">
<path d="M161.942 158.496L647.9 84.1225C733.211 70.2163 779.852 119.984 776.131 190.312L740.65 702.081C735.249 772.41 692.652 821.993 630.554 829.441L102.962 874.272C40.8649 881.721 0.0424288 839.065 8.27219 772.041L51.8864 270.797C60.0051 206.973 102.787 166.046 161.942 158.496Z" fill="#070912"/>
<path d="M648.306 86.6101C690.42 79.7452 722.575 88.6478 743.725 107.511C764.878 126.376 775.436 155.568 773.617 190.138L738.138 701.889C732.812 771.238 690.955 819.641 630.288 826.934L102.749 871.762L102.663 871.77C72.2616 875.417 47.3809 866.785 31.0855 849.362C14.7713 831.919 6.72694 805.305 10.7736 772.349C10.7772 772.319 10.78 772.289 10.7825 772.26L54.3909 271.077C62.3774 208.41 104.261 168.399 162.261 160.996C162.282 160.994 162.303 160.991 162.324 160.988L648.281 86.6131C648.289 86.6119 648.298 86.6114 648.306 86.6101Z" stroke="url(#paint6_linear_6021_240)" stroke-opacity="0.9" stroke-width="5.04" stroke-linecap="round" stroke-linejoin="round"/>
</g>
<path d="M387.999 715.785C387.233 708.396 392.589 701.779 399.975 700.988L611.878 678.281C619.275 677.489 625.908 682.857 626.675 690.258C627.438 697.621 622.102 704.215 614.741 705.003L402.745 727.72C395.373 728.51 388.763 723.16 387.999 715.785Z" fill="#1599B5" stroke="black" stroke-opacity="0.5" stroke-width="1.68"/>
<rect x="96.981" y="731.927" width="262.376" height="26.88" rx="13.44" transform="rotate(-6 96.981 731.927)" fill="#252A42" stroke="black" stroke-opacity="0.5" stroke-width="1.68"/>
<rect x="450.191" y="625.169" width="201.947" height="26.88" rx="13.44" transform="rotate(-6 450.191 625.169)" fill="#2E3350" stroke="black" stroke-opacity="0.5" stroke-width="1.68"/>
<rect x="102.986" y="661.442" width="321.138" height="26.88" rx="13.44" transform="rotate(-6 102.986 661.442)" fill="#4A4566" stroke="black" stroke-opacity="0.5" stroke-width="1.68"/>
<path d="M325.835 581.345C325.051 573.951 330.419 567.325 337.815 566.558L573.068 542.159C580.44 541.395 587.04 546.741 587.822 554.112C588.606 561.506 583.238 568.132 575.842 568.899L340.588 593.297C333.216 594.062 326.616 588.715 325.835 581.345Z" fill="#2E3350" stroke="black" stroke-opacity="0.5" stroke-width="1.68"/>
<rect opacity="0.3" x="108.822" y="590.975" width="188.145" height="26.88" rx="13.44" transform="rotate(-6 108.822 590.975)" fill="#4A4566" stroke="black" stroke-opacity="0.5" stroke-width="1.68"/>
<path d="M444.241 221.112C447.667 214.17 455.357 209.597 462.171 210.446C470.283 211.456 473.855 219.637 469.787 227.904L342.933 485.671C339.386 492.878 331.506 497.66 324.578 496.805C316.363 495.79 312.847 487.368 317.063 478.826L444.241 221.112Z" fill="url(#paint7_linear_6021_240)"/>
<path d="M278.459 272.789C285.166 266.199 294.816 264.956 299.965 270.016C305.064 275.027 303.833 284.342 297.197 290.88L222.766 364.21C214.668 372.187 213.312 383.605 219.785 389.409L280.592 443.929C285.859 448.651 285.099 457.845 278.868 464.677C272.398 471.771 262.534 473.6 257.032 468.721L216.775 433.022L176.518 397.323C173.384 394.544 171.937 390.272 172.511 385.493L172.785 383.201C173.357 378.437 175.887 373.579 179.794 369.74L278.459 272.789Z" fill="url(#paint8_linear_6021_240)"/>
<path d="M507.152 243.205C513.396 236.5 522.904 234.893 528.34 239.619L607.765 308.671C610.89 311.387 612.435 315.551 612.045 320.208L611.858 322.448C611.467 327.12 609.164 331.889 605.477 335.656L510.145 433.071C503.586 439.773 493.97 440.987 488.857 435.754C483.928 430.71 485.032 421.54 491.338 415.069L563.765 340.752C571.435 332.882 572.383 321.684 565.872 316.021L505.705 263.692C500.313 259.002 500.963 249.85 507.152 243.205Z" fill="url(#paint9_linear_6021_240)"/>
<path d="M442.734 220.369C446.424 212.893 454.743 207.828 462.379 208.778C467.003 209.354 470.442 212.015 472.086 215.781C473.714 219.513 473.508 224.147 471.294 228.646L344.44 486.413C340.641 494.134 332.142 499.431 324.372 498.472C319.679 497.892 316.226 495.154 314.609 491.286C313.011 487.46 313.274 482.707 315.557 478.082L442.734 220.369ZM289.581 265.367C293.863 264.815 298.12 265.847 301.143 268.817C307.192 274.762 305.36 285.196 298.376 292.077L223.945 365.406C220.14 369.155 217.972 373.662 217.479 377.822C216.988 381.975 218.158 385.694 220.906 388.158L281.714 442.678C287.969 448.286 286.666 458.619 280.109 465.809C276.644 469.608 272.239 472.036 267.893 472.841C263.552 473.645 259.145 472.84 255.917 469.978L215.66 434.278L175.403 398.58C171.79 395.376 170.215 390.524 170.843 385.292L171.117 383.001C171.74 377.805 174.478 372.608 178.616 368.542L277.281 271.591C280.877 268.058 285.297 265.919 289.581 265.367ZM505.923 242.06C512.526 234.97 523.069 232.811 529.441 238.351L608.867 307.403C612.452 310.52 614.146 315.235 613.719 320.348L613.532 322.588C613.105 327.698 610.602 332.821 606.678 336.831L511.346 434.246C504.426 441.317 493.691 443.105 487.655 436.928C481.844 430.98 483.471 420.735 490.135 413.896L562.561 339.579C569.861 332.089 570.261 322.066 564.769 317.289L504.602 264.96C498.212 259.402 499.372 249.093 505.923 242.06Z" stroke="url(#paint10_linear_6021_240)" stroke-opacity="0.975" stroke-width="3.36"/>
<defs>
<filter id="filter0_f_6021_240" x="43.0656" y="170.011" width="930.911" height="740.321" filterUnits="userSpaceOnUse" color-interpolation-filters="sRGB">
<feFlood flood-opacity="0" result="BackgroundImageFix"/>
<feBlend mode="normal" in="SourceGraphic" in2="BackgroundImageFix" result="shape"/>
<feGaussianBlur stdDeviation="4.2" result="effect1_foregroundBlur_6021_240"/>
</filter>
<filter id="filter1_f_6021_240" x="23.7617" y="125.159" width="868.76" height="783.409" filterUnits="userSpaceOnUse" color-interpolation-filters="sRGB">
<feFlood flood-opacity="0" result="BackgroundImageFix"/>
<feBlend mode="normal" in="SourceGraphic" in2="BackgroundImageFix" result="shape"/>
<feGaussianBlur stdDeviation="4.2" result="effect1_foregroundBlur_6021_240"/>
</filter>
<filter id="filter2_f_6021_240" x="17.9857" y="85.2321" width="785.918" height="810.128" filterUnits="userSpaceOnUse" color-interpolation-filters="sRGB">
<feFlood flood-opacity="0" result="BackgroundImageFix"/>
<feBlend mode="normal" in="SourceGraphic" in2="BackgroundImageFix" result="shape"/>
<feGaussianBlur stdDeviation="4.2" result="effect1_foregroundBlur_6021_240"/>
</filter>
<filter id="filter3_d_6021_240" x="0.499617" y="81.7852" width="782.558" height="806.768" filterUnits="userSpaceOnUse" color-interpolation-filters="sRGB">
<feFlood flood-opacity="0" result="BackgroundImageFix"/>
<feColorMatrix in="SourceAlpha" type="matrix" values="0 0 0 0 0 0 0 0 0 0 0 0 0 0 0 0 0 0 127 0" result="hardAlpha"/>
<feOffset dy="6.72"/>
<feGaussianBlur stdDeviation="3.36"/>
<feComposite in2="hardAlpha" operator="out"/>
<feColorMatrix type="matrix" values="0 0 0 0 0 0 0 0 0 0 0 0 0 0 0 0 0 0 0.25 0"/>
<feBlend mode="normal" in2="BackgroundImageFix" result="effect1_dropShadow_6021_240"/>
<feBlend mode="normal" in="SourceGraphic" in2="effect1_dropShadow_6021_240" result="shape"/>
</filter>
<linearGradient id="paint0_linear_6021_240" x1="583.549" y1="189.987" x2="490.215" y2="929.672" gradientUnits="userSpaceOnUse">
<stop stop-color="#1E6BFF"/>
<stop offset="1" stop-color="#0B3FC4"/>
</linearGradient>
<linearGradient id="paint1_linear_6021_240" x1="583.549" y1="189.987" x2="490.215" y2="929.672" gradientUnits="userSpaceOnUse">
<stop stop-color="#1E6BFF"/>
<stop offset="1" stop-color="#0B3FC4"/>
</linearGradient>
<linearGradient id="paint2_linear_6021_240" x1="554.458" y1="131.119" x2="449.102" y2="925.11" gradientUnits="userSpaceOnUse">
<stop stop-color="#4F46FF"/>
<stop offset="1" stop-color="#1B52E0"/>
</linearGradient>
<linearGradient id="paint3_linear_6021_240" x1="554.458" y1="131.119" x2="449.102" y2="925.11" gradientUnits="userSpaceOnUse">
<stop stop-color="#4F46FF"/>
<stop offset="1" stop-color="#1B52E0"/>
</linearGradient>
<linearGradient id="paint4_linear_6021_240" x1="480.776" y1="95.9165" x2="411.783" y2="905.773" gradientUnits="userSpaceOnUse">
<stop stop-color="#7B2FF7"/>
<stop offset="1" stop-color="#3A2FD8"/>
</linearGradient>
<linearGradient id="paint5_linear_6021_240" x1="480.776" y1="95.9165" x2="411.783" y2="905.773" gradientUnits="userSpaceOnUse">
<stop stop-color="#7B2FF7"/>
<stop offset="1" stop-color="#3A2FD8"/>
</linearGradient>
<linearGradient id="paint6_linear_6021_240" x1="392.943" y1="69.0834" x2="364.098" y2="895.079" gradientUnits="userSpaceOnUse">
<stop stop-color="#7B2FF7"/>
<stop offset="1" stop-color="#3A2FD8"/>
</linearGradient>
<linearGradient id="paint7_linear_6021_240" x1="349.94" y1="254.251" x2="463.829" y2="444.944" gradientUnits="userSpaceOnUse">
<stop stop-color="#7B2FF7"/>
<stop offset="0.45272" stop-color="#4F46FF"/>
<stop offset="1" stop-color="#1E6BFF"/>
</linearGradient>
<linearGradient id="paint8_linear_6021_240" x1="349.94" y1="254.251" x2="463.829" y2="444.944" gradientUnits="userSpaceOnUse">
<stop stop-color="#7B2FF7"/>
<stop offset="0.45272" stop-color="#4F46FF"/>
<stop offset="1" stop-color="#1E6BFF"/>
</linearGradient>
<linearGradient id="paint9_linear_6021_240" x1="349.94" y1="254.251" x2="463.829" y2="444.944" gradientUnits="userSpaceOnUse">
<stop stop-color="#7B2FF7"/>
<stop offset="0.45272" stop-color="#4F46FF"/>
<stop offset="1" stop-color="#1E6BFF"/>
</linearGradient>
<linearGradient id="paint10_linear_6021_240" x1="347.617" y1="258.328" x2="450.097" y2="458.248" gradientUnits="userSpaceOnUse">
<stop stop-color="#7B2FF7"/>
<stop offset="0.458327" stop-color="#4F46FF"/>
<stop offset="1" stop-color="#1E6BFF"/>
</linearGradient>
</defs>
</svg>
