<svg width="4687" height="1024" viewBox="0 0 4687 1024" fill="none" xmlns="http://www.w3.org/2000/svg">
<path d="M1193.8 773.928C1188.94 773.928 1185 769.988 1185 765.128V258.248C1185 253.388 1188.94 249.448 1193.8 249.448H1259.27C1264.13 249.448 1268.07 253.388 1268.07 258.248V691.208C1268.07 696.068 1272.01 700.008 1276.87 700.008H1485.96C1490.82 700.008 1494.76 703.948 1494.76 708.808V765.128C1494.76 769.988 1490.82 773.928 1485.96 773.928H1193.8Z" fill="#E8E9F2"/>
<path d="M1735.57 782.376C1697.56 782.376 1663.76 773.693 1634.2 756.328C1605.1 738.493 1582.33 714.557 1565.91 684.52C1549.48 654.013 1541.27 619.987 1541.27 582.44C1541.27 543.955 1549.48 509.928 1565.91 480.36C1582.8 450.792 1605.33 427.56 1633.49 410.664C1661.65 393.299 1693.57 384.616 1729.24 384.616C1757.87 384.616 1783.44 389.544 1805.97 399.4C1828.5 409.256 1847.51 422.867 1863 440.232C1878.48 457.128 1890.22 476.605 1898.2 498.664C1906.64 520.723 1910.87 544.189 1910.87 569.064C1910.87 575.165 1910.63 581.501 1910.16 588.072C1909.88 592.11 1909.41 595.971 1908.77 599.655C1908.07 603.633 1904.52 606.376 1900.48 606.376H1612.72C1607.86 606.376 1603.92 602.436 1603.92 597.576V551.816C1603.92 546.956 1607.86 543.016 1612.72 543.016H1837.09C1845.22 543.016 1848.69 553.34 1842.22 558.254C1835.99 562.987 1826.71 557.351 1826.86 549.525C1827.14 535.425 1824.64 522.461 1819.35 510.632C1811.84 492.328 1800.11 478.013 1784.15 467.688C1768.66 456.893 1750.36 451.496 1729.24 451.496C1708.12 451.496 1689.34 456.893 1672.92 467.688C1656.49 478.013 1643.82 493.032 1634.9 512.744C1626.06 531.824 1622.52 555.058 1624.29 582.445C1624.32 582.908 1624.32 583.379 1624.28 583.842C1622.06 609.363 1625.6 631.659 1634.9 650.728C1644.76 669.971 1658.37 684.989 1675.73 695.784C1693.57 706.579 1713.75 711.976 1736.28 711.976C1759.27 711.976 1778.75 706.813 1794.71 696.488C1808.73 687.673 1820.19 676.635 1829.08 663.374C1831.67 659.519 1836.67 657.947 1840.84 659.986L1890.72 684.386C1894.92 686.436 1896.81 691.42 1894.71 695.592C1887.24 710.473 1876.67 724.148 1863 736.616C1847.51 750.696 1828.73 761.96 1806.68 770.408C1785.09 778.387 1761.39 782.376 1735.57 782.376Z" fill="#E8E9F2"/>
<path d="M2167.32 782.376C2129.31 782.376 2095.51 773.693 2065.95 756.328C2036.85 738.493 2014.08 714.557 1997.66 684.52C1981.23 654.013 1973.02 619.987 1973.02 582.44C1973.02 543.955 1981.23 509.928 1997.66 480.36C2014.55 450.792 2037.08 427.56 2065.24 410.664C2093.4 393.299 2125.32 384.616 2160.99 384.616C2189.62 384.616 2215.19 389.544 2237.72 399.4C2260.25 409.256 2279.26 422.867 2294.75 440.232C2310.23 457.128 2321.97 476.605 2329.95 498.664C2338.39 520.723 2342.62 544.189 2342.62 569.064C2342.62 575.165 2342.38 581.501 2341.91 588.072C2341.63 592.11 2341.16 595.971 2340.52 599.655C2339.82 603.633 2336.27 606.376 2332.23 606.376H2044.47C2039.61 606.376 2035.67 602.436 2035.67 597.576V551.816C2035.67 546.956 2039.61 543.016 2044.47 543.016H2268.84C2276.97 543.016 2280.44 553.34 2273.97 558.254C2267.74 562.987 2258.46 557.351 2258.61 549.525C2258.89 535.425 2256.39 522.461 2251.1 510.632C2243.59 492.328 2231.86 478.013 2215.9 467.688C2200.41 456.893 2182.11 451.496 2160.99 451.496C2139.87 451.496 2121.09 456.893 2104.67 467.688C2088.24 478.013 2075.57 493.032 2066.65 512.744C2057.81 531.824 2054.27 555.058 2056.04 582.445C2056.07 582.908 2056.07 583.379 2056.03 583.842C2053.81 609.363 2057.35 631.659 2066.65 650.728C2076.51 669.971 2090.12 684.989 2107.48 695.784C2125.32 706.579 2145.5 711.976 2168.03 711.976C2191.02 711.976 2210.5 706.813 2226.46 696.488C2240.48 687.673 2251.94 676.635 2260.83 663.374C2263.42 659.519 2268.42 657.947 2272.59 659.986L2322.47 684.386C2326.67 686.436 2328.56 691.42 2326.46 695.592C2318.99 710.473 2308.42 724.148 2294.75 736.616C2279.26 750.696 2260.48 761.96 2238.43 770.408C2216.84 778.387 2193.14 782.376 2167.32 782.376Z" fill="#E8E9F2"/>
<path d="M2584.99 778.152C2545.1 778.152 2514.12 766.888 2492.06 744.36C2470.01 721.832 2458.98 690.152 2458.98 649.32V473.672C2458.98 468.812 2455.04 464.872 2450.18 464.872H2400.9C2396.04 464.872 2392.1 460.932 2392.1 456.072V401.864C2392.1 397.004 2396.04 393.064 2400.9 393.064H2402.66C2420.49 393.064 2434.34 387.901 2444.19 377.576C2454.05 367.251 2458.98 353.171 2458.98 335.336V314.568C2458.98 309.708 2462.92 305.768 2467.78 305.768H2529.73C2534.59 305.768 2538.53 309.708 2538.53 314.568V384.264C2538.53 389.124 2542.47 393.064 2547.33 393.064H2616.32C2621.18 393.064 2625.12 397.004 2625.12 401.864V456.072C2625.12 460.932 2621.18 464.872 2616.32 464.872H2547.33C2542.47 464.872 2538.53 468.812 2538.53 473.672V645.8C2538.53 658.941 2540.64 670.205 2544.86 679.592C2549.09 688.509 2555.89 695.549 2565.28 700.712C2574.67 705.405 2586.87 707.752 2601.89 707.752C2605.64 707.752 2609.87 707.517 2614.56 707.048C2615.78 706.926 2616.98 706.805 2618.16 706.683C2623.38 706.148 2627.94 710.227 2627.94 715.472V766.296C2627.94 770.675 2624.72 774.392 2620.38 774.967C2615.9 775.559 2611.15 776.152 2606.11 776.744C2598.13 777.683 2591.09 778.152 2584.99 778.152Z" fill="#E8E9F2"/>
<path d="M2957.6 782.376C2920.52 782.376 2886.03 775.571 2854.11 761.96C2822.67 748.349 2795.21 729.576 2771.74 705.64C2748.75 681.235 2730.68 652.605 2717.54 619.752C2704.4 586.899 2697.82 550.76 2697.82 511.336C2697.82 472.381 2704.16 436.477 2716.83 403.624C2729.97 370.301 2748.28 341.672 2771.74 317.736C2795.21 293.331 2822.67 274.557 2854.11 261.416C2885.56 247.805 2920.05 241 2957.6 241C2994.68 241 3027.77 247.336 3056.86 260.008C3086.43 272.68 3111.31 289.341 3131.49 309.992C3149.54 328.046 3163.09 347.602 3172.13 368.66C3173.93 372.863 3171.96 377.668 3167.82 379.619L3108.97 407.38C3104.38 409.543 3098.94 407.382 3096.79 402.793C3085.43 378.551 3068.6 358.647 3046.3 343.08C3021.9 325.245 2992.33 316.328 2957.6 316.328C2922.87 316.328 2892.13 324.541 2865.38 340.968C2838.62 357.395 2817.74 380.157 2802.72 409.256C2788.17 438.355 2780.9 472.381 2780.9 511.336C2780.9 550.291 2788.17 584.552 2802.72 614.12C2817.74 643.219 2838.62 665.981 2865.38 682.408C2892.13 698.365 2922.87 706.344 2957.6 706.344C2992.33 706.344 3021.9 697.661 3046.3 680.296C3068.6 664.729 3085.43 644.825 3096.79 620.583C3098.94 615.994 3104.38 613.833 3108.97 615.996L3167.77 643.734C3171.93 645.695 3173.9 650.534 3172.06 654.744C3163.02 675.412 3149.5 694.958 3131.49 713.384C3111.31 734.035 3086.43 750.696 3056.86 763.368C3027.77 776.04 2994.68 782.376 2957.6 782.376Z" fill="#4F46FF"/>
<path d="M3359.99 782.376C3334.18 782.376 3311.42 777.917 3291.7 769C3272.46 759.613 3257.44 746.941 3246.65 730.984C3235.85 714.557 3230.46 695.315 3230.46 673.256C3230.46 652.605 3234.91 634.067 3243.83 617.64C3253.22 601.213 3267.53 587.368 3286.78 576.104C3306.02 564.84 3330.19 556.861 3359.29 552.168L3481.41 532.031C3486.77 531.147 3491.64 535.282 3491.64 540.714V585.604C3491.64 589.88 3488.57 593.537 3484.35 594.273L3374.78 613.416C3353.66 617.171 3338.17 623.976 3328.31 633.832C3318.46 643.219 3313.53 655.421 3313.53 670.44C3313.53 684.989 3318.92 696.957 3329.72 706.344C3340.98 715.261 3355.3 719.72 3372.66 719.72C3394.25 719.72 3413.03 715.027 3428.98 705.64C3445.41 696.253 3458.08 683.816 3467 668.328C3475.92 652.371 3480.38 634.771 3480.38 615.528V517.672C3480.38 498.899 3473.34 483.645 3459.26 471.912C3445.65 459.709 3427.34 453.608 3404.34 453.608C3383.22 453.608 3364.68 459.24 3348.73 470.504C3335.81 479.509 3325.66 490.801 3318.29 504.379C3315.89 508.819 3310.43 510.843 3305.91 508.584L3255.14 483.199C3251.11 481.185 3249.22 476.438 3251.08 472.335C3258.21 456.582 3268.7 442.595 3282.55 430.376C3298.51 415.827 3317.05 404.563 3338.17 396.584C3359.76 388.605 3382.52 384.616 3406.46 384.616C3436.49 384.616 3463.01 390.248 3486.01 401.512C3509.47 412.776 3527.54 428.499 3540.22 448.68C3553.36 468.392 3559.93 491.389 3559.93 517.672V765.128C3559.93 769.988 3555.99 773.928 3551.13 773.928H3492.7C3487.84 773.928 3483.9 769.988 3483.9 765.128V711.992C3483.9 708.252 3487.18 705.365 3490.89 705.849C3495.27 706.42 3497.65 711.253 3495.21 714.93C3487.1 727.12 3477.23 737.869 3465.59 747.176C3451.98 758.44 3436.26 767.123 3418.42 773.224C3401.06 779.325 3381.58 782.376 3359.99 782.376Z" fill="#4F46FF"/>
<path d="M3661.74 773.928C3656.88 773.928 3652.94 769.988 3652.94 765.128V401.864C3652.94 397.004 3656.88 393.064 3661.74 393.064H3720.18C3725.04 393.064 3728.98 397.004 3728.98 401.864V458.108C3728.98 461.477 3724.56 462.742 3722.78 459.885C3722.25 459.031 3722.12 457.979 3722.46 457.029C3730.94 432.94 3744.38 415.607 3762.77 405.032C3781.54 393.768 3804.07 388.136 3830.35 388.136H3844.78C3849.64 388.136 3853.58 392.076 3853.58 396.936V451.848C3853.58 456.708 3849.64 460.648 3844.78 460.648H3820.5C3794.21 460.648 3772.86 468.861 3756.43 485.288C3740.47 501.245 3732.5 524.243 3732.5 554.28V765.128C3732.5 769.988 3728.56 773.928 3723.7 773.928H3661.74Z" fill="#4F46FF"/>
<path d="M4084.01 782.376C4047.4 782.376 4014.54 773.693 3985.45 756.328C3956.82 738.493 3934.05 714.557 3917.16 684.52C3900.73 654.483 3892.52 620.691 3892.52 583.144C3892.52 545.597 3900.97 511.805 3917.86 481.768C3934.76 451.731 3957.52 428.029 3986.15 410.664C4014.78 393.299 4047.16 384.616 4083.3 384.616C4113.81 384.616 4140.8 390.717 4164.26 402.92C4186.65 414.562 4204.55 430.475 4217.97 450.66C4219.15 452.441 4219.13 454.756 4217.96 456.547C4214.98 461.097 4207.91 458.99 4207.91 453.554V249.8C4207.91 244.94 4211.85 241 4216.71 241H4277.96C4282.82 241 4286.76 244.94 4286.76 249.8V765.128C4286.76 769.988 4282.82 773.928 4277.96 773.928H4220.23C4215.37 773.928 4211.43 769.988 4211.43 765.128V711.359C4211.43 707.099 4217.02 705.51 4219.26 709.132C4220.07 710.451 4220.11 712.114 4219.31 713.446C4206.24 735.381 4187.89 752.257 4164.26 764.072C4139.86 776.275 4113.1 782.376 4084.01 782.376ZM4091.75 708.456C4113.81 708.456 4133.52 703.059 4150.89 692.264C4168.72 681.469 4182.57 666.685 4192.42 647.912C4202.75 628.669 4207.91 607.08 4207.91 583.144C4207.91 559.208 4202.75 537.853 4192.42 519.08C4182.57 500.307 4168.72 485.523 4150.89 474.728C4133.52 463.933 4113.81 458.536 4091.75 458.536C4069.69 458.536 4049.74 463.933 4031.91 474.728C4014.08 485.523 4000.23 500.307 3990.37 519.08C3980.52 537.853 3975.59 559.208 3975.59 583.144C3975.59 607.08 3980.52 628.669 3990.37 647.912C4000.23 666.685 4013.84 681.469 4031.21 692.264C4049.04 703.059 4069.22 708.456 4091.75 708.456Z" fill="#4F46FF"/>
<path d="M4520.43 782.376C4481.48 782.376 4447.21 772.755 4417.65 753.512C4390.82 735.774 4371.38 712.451 4359.31 683.546C4357.56 679.352 4359.54 674.591 4363.65 672.654L4409.73 650.938C4414.11 648.875 4419.31 650.75 4421.64 654.993C4431.5 672.955 4444.25 687.491 4459.89 698.6C4478.19 711.272 4498.37 717.608 4520.43 717.608C4539.2 717.608 4554.46 713.384 4566.19 704.936C4577.92 696.488 4583.79 684.989 4583.79 670.44C4583.79 661.053 4581.21 653.544 4576.05 647.912C4570.88 641.811 4564.31 636.883 4556.33 633.128C4548.83 629.373 4541.08 626.557 4533.1 624.68L4473.26 607.784C4440.41 598.397 4415.77 584.317 4399.34 565.544C4383.39 546.301 4375.41 524.008 4375.41 498.664C4375.41 475.667 4381.27 455.72 4393.01 438.824C4404.74 421.459 4420.93 408.083 4441.58 398.696C4462.23 389.309 4485.47 384.616 4511.28 384.616C4546.01 384.616 4576.99 393.299 4604.21 410.664C4629.16 426.15 4647.4 447.352 4658.95 474.272C4660.75 478.467 4658.77 483.262 4654.64 485.208L4609.06 506.684C4604.51 508.831 4599.12 506.7 4596.79 502.233C4589.28 487.822 4578.61 476.072 4564.78 466.984C4548.83 456.189 4530.76 450.792 4510.57 450.792C4493.21 450.792 4479.36 455.016 4469.04 463.464C4458.71 471.443 4453.55 482.003 4453.55 495.144C4453.55 504.061 4455.9 511.571 4460.59 517.672C4465.28 523.304 4471.39 527.997 4478.9 531.752C4486.4 535.037 4494.15 537.853 4502.13 540.2L4564.08 558.504C4595.52 567.421 4619.69 581.501 4636.59 600.744C4653.49 619.517 4661.94 642.045 4661.94 668.328C4661.94 690.856 4655.83 710.803 4643.63 728.168C4631.9 745.064 4615.47 758.44 4594.35 768.296C4573.23 777.683 4548.59 782.376 4520.43 782.376Z" fill="#4F46FF"/>
<mask id="mask0_6021_240" style="mask-type:alpha" maskUnits="userSpaceOnUse" x="32" y="227" width="988" height="682">
<path d="M350.16 246.864L900.136 231.401C976.761 228.948 1027.51 286.513 1012.04 350.375L900.088 799.164C882.951 863.45 824.465 904.424 751.706 904.341L138.013 884.619C65.7242 881.576 21.8128 830.757 41.8787 769.859L176.009 339.744C195.134 284.766 284.197 247.636 350.16 246.864Z" fill="url(#paint0_linear_6021_240)" stroke="white" stroke-opacity="0.15" stroke-width="8.4" stroke-linecap="round" stroke-linejoin="round"/>
</mask>
<g mask="url(#mask0_6021_240)">
<path d="M350.16 246.864L900.136 231.401C976.761 228.948 1027.51 286.513 1012.04 350.375L900.088 799.164C882.951 863.45 824.465 904.424 751.706 904.341L138.013 884.619C65.7242 881.576 21.8128 830.757 41.8787 769.859L176.009 339.744C195.134 284.766 284.197 247.636 350.16 246.864Z" fill="url(#paint1_linear_6021_240)" stroke="white" stroke-opacity="0.15" stroke-width="8.4" stroke-linecap="round" stroke-linejoin="round"/>
<g filter="url(#filter0_f_6021_240)">
<path d="M361.835 204.142L863.637 182.76C933.134 179.416 975.911 232.263 963.298 299.269L863.715 784.03C849.416 851.036 794.745 897.048 728.824 897.734L146.792 892.858C80.8714 893.544 43.0498 838.442 59.9049 774.905L195.26 301.134C211.605 240.662 298.982 205.233 361.835 204.142Z" fill="black" fill-opacity="0.65"/>
<path d="M361.835 204.142L863.637 182.76C933.134 179.416 975.911 232.263 963.298 299.269L863.715 784.03C849.416 851.036 794.745 897.048 728.824 897.734L146.792 892.858C80.8714 893.544 43.0498 838.442 59.9049 774.905L195.26 301.134C211.605 240.662 298.982 205.233 361.835 204.142Z" stroke="black" stroke-opacity="0.2" stroke-width="8.4" stroke-linecap="round" stroke-linejoin="round"/>
</g>
</g>
<mask id="mask1_6021_240" style="mask-type:alpha" maskUnits="userSpaceOnUse" x="31" y="166" width="919" height="725">
<path d="M341.783 192.308L843.429 170.699C912.905 167.324 955.645 220.175 943.006 287.215L843.244 772.228C828.921 839.269 774.247 885.325 708.348 886.04L126.511 881.414C60.6117 882.129 22.8267 827.019 39.7041 763.447L175.222 289.413C191.588 228.908 278.951 193.426 341.783 192.308Z" fill="url(#paint2_linear_6021_240)" stroke="white" stroke-opacity="0.15" stroke-width="8.4" stroke-linecap="round" stroke-linejoin="round"/>
</mask>
<g mask="url(#mask1_6021_240)">
<path d="M341.783 192.308L843.429 170.699C912.905 167.324 955.645 220.175 943.006 287.215L843.244 772.228C828.921 839.269 774.247 885.325 708.348 886.04L126.511 881.414C60.6117 882.129 22.8267 827.019 39.7041 763.447L175.222 289.413C191.588 228.908 278.951 193.426 341.783 192.308Z" fill="url(#paint3_linear_6021_240)" stroke="white" stroke-opacity="0.15" stroke-width="8.4" stroke-linecap="round" stroke-linejoin="round"/>
<g filter="url(#filter1_f_6021_240)">
<path d="M297.572 185.92L780.002 138.104C846.793 131.093 890.954 182.413 882.654 251.155L814.137 748.29C804.15 817.033 754.064 866.574 690.568 870.7L129.325 896.045C65.8293 900.171 26.2571 846.22 38.9023 780.864L142.521 293.019C154.847 230.8 237.056 190.298 297.572 185.92Z" fill="black" fill-opacity="0.65"/>
<path d="M297.572 185.92L780.002 138.104C846.793 131.093 890.954 182.413 882.654 251.155L814.137 748.29C804.15 817.033 754.064 866.574 690.568 870.7L129.325 896.045C65.8293 900.171 26.2571 846.22 38.9023 780.864L142.521 293.019C154.847 230.8 237.056 190.298 297.572 185.92Z" stroke="black" stroke-opacity="0.2" stroke-width="8.4" stroke-linecap="round" stroke-linejoin="round"/>
</g>
</g>
<mask id="mask2_6021_240" style="mask-type:alpha" maskUnits="userSpaceOnUse" x="13" y="116" width="857" height="768">
<path d="M278.806 169.179L761.4 121.591C828.213 114.612 872.414 165.93 864.141 234.641L795.814 731.546C785.854 800.258 735.77 849.757 672.252 853.854L110.806 878.946C47.2872 883.043 7.67635 829.097 20.2977 763.773L123.743 276.168C136.047 213.979 218.269 173.529 278.806 169.179Z" fill="url(#paint4_linear_6021_240)" stroke="white" stroke-opacity="0.15" stroke-width="8.4" stroke-linejoin="round"/>
</mask>
<g mask="url(#mask2_6021_240)">
<path d="M278.806 169.179L761.4 121.591C828.213 114.612 872.414 165.93 864.141 234.641L795.814 731.546C785.854 800.258 735.77 849.757 672.252 853.854L110.806 878.946C47.2872 883.043 7.67635 829.097 20.2977 763.773L123.743 276.168C136.047 213.979 218.269 173.529 278.806 169.179Z" fill="url(#paint5_linear_6021_240)" stroke="white" stroke-opacity="0.15" stroke-width="8.4" stroke-linejoin="round"/>
<g filter="url(#filter2_f_6021_240)">
<path d="M181.885 170.343L669.925 95.9695C755.601 82.0632 802.442 131.831 798.705 202.159L763.073 713.928C757.649 784.257 714.868 833.84 652.505 841.288L122.652 886.119C60.2883 893.568 19.2908 850.912 27.5558 783.888L71.357 282.644C79.5105 218.82 122.475 177.893 181.885 170.343Z" fill="black" fill-opacity="0.65"/>
</g>
</g>
<g filter="url(#filter3_d_6021_240)">
<path d="M171.984 158.493L657.91 84.0783C743.215 70.1649 789.849 119.932 786.123 190.266L750.607 702.07C745.201 772.403 702.603 821.992 640.51 829.446L112.955 874.319C50.8614 881.773 10.0452 839.118 18.2794 772.089L61.9278 270.809C70.0506 206.98 112.832 166.048 171.984 158.493Z" fill="#070912"/>
<path d="M658.316 86.5656C700.427 79.6973 732.578 88.5979 753.725 107.46C774.884 126.332 785.439 155.542 783.607 190.132L748.095 701.877C742.764 771.233 700.905 819.643 640.24 826.939L112.741 871.808L112.655 871.817C82.2563 875.466 57.3781 866.836 41.0853 849.413C24.7735 831.97 16.7319 805.355 20.7808 772.395C20.7844 772.366 20.7872 772.336 20.7898 772.307L64.4341 271.067C72.4315 208.407 114.313 168.399 172.303 160.993C172.324 160.99 172.344 160.987 172.365 160.984L658.291 86.5697C658.3 86.5684 658.308 86.567 658.316 86.5656Z" stroke="url(#paint6_linear_6021_240)" stroke-opacity="0.9" stroke-width="5.04" stroke-linecap="round" stroke-linejoin="round"/>
</g>
<path d="M387.998 715.79C387.233 708.403 392.587 701.788 399.971 700.997L611.884 678.281C619.279 677.489 625.91 682.855 626.676 690.253C627.439 697.614 622.104 704.206 614.745 704.994L402.739 727.72C395.37 728.51 388.762 723.162 387.998 715.79Z" fill="#1599B5" stroke="black" stroke-opacity="0.5" stroke-width="1.68"/>
<rect width="262.375" height="26.8706" rx="13.4353" transform="matrix(0.994536 -0.104566 0.104491 0.994508 96.981 731.937)" fill="#252A42" stroke="black" stroke-opacity="0.5" stroke-width="1.68"/>
<rect width="201.946" height="26.8719" rx="13.4359" transform="matrix(0.994536 -0.104571 0.104486 0.994508 450.191 625.177)" fill="#2E3350" stroke="black" stroke-opacity="0.5" stroke-width="1.68"/>
<rect width="321.135" height="26.8697" rx="13.4348" transform="matrix(0.994536 -0.104562 0.104494 0.994507 102.986 661.453)" fill="#4A4566" stroke="black" stroke-opacity="0.5" stroke-width="1.68"/>
<path d="M325.834 581.35C325.05 573.958 330.417 567.335 337.81 566.567L573.075 542.159C580.444 541.394 587.042 546.739 587.823 554.107C588.606 561.498 583.24 568.122 575.846 568.889L340.582 593.298C333.212 594.062 326.615 588.717 325.834 581.35Z" fill="#2E3350" stroke="black" stroke-opacity="0.5" stroke-width="1.68"/>
<rect opacity="0.3" width="188.145" height="26.8722" rx="13.4361" transform="matrix(0.994535 -0.104572 0.104485 0.994508 108.822 590.983)" fill="#4A4566" stroke="black" stroke-opacity="0.5" stroke-width="1.68"/>
<path d="M454.245 221.124C457.672 214.181 465.361 209.609 472.174 210.457C480.285 211.466 483.856 219.646 479.787 227.913L352.929 485.659C349.382 492.866 341.502 497.649 334.574 496.793C326.361 495.779 322.846 487.359 327.061 478.817L454.245 221.124Z" fill="url(#paint7_linear_6021_240)"/>
<path d="M288.477 272.807C295.184 266.217 304.833 264.974 309.981 270.033C315.08 275.042 313.847 284.357 307.212 290.894L232.783 364.221C224.686 372.199 223.329 383.615 229.801 389.418L290.598 443.927C295.864 448.648 295.103 457.841 288.872 464.673C282.402 471.767 272.54 473.596 267.038 468.717L226.788 433.026L186.538 397.334C183.405 394.555 181.959 390.284 182.532 385.505L182.807 383.214C183.379 378.451 185.909 373.593 189.816 369.754L288.477 272.807Z" fill="url(#paint8_linear_6021_240)"/>
<path d="M517.148 243.209C523.392 236.505 532.899 234.897 538.333 239.622L617.745 308.66C620.869 311.376 622.413 315.538 622.024 320.196L621.836 322.435C621.445 327.107 619.142 331.875 615.455 335.643L520.126 433.053C513.567 439.755 503.952 440.969 498.84 435.737C493.913 430.694 495.017 421.525 501.323 415.055L573.747 340.741C581.417 332.871 582.366 321.674 575.856 316.013L515.699 263.694C510.308 259.005 510.959 249.854 517.148 243.209Z" fill="url(#paint9_linear_6021_240)"/>
<path d="M452.739 220.38C456.428 212.904 464.748 207.839 472.382 208.789C477.006 209.365 480.445 212.026 482.088 215.792C483.716 219.523 483.509 224.156 481.295 228.655L354.436 486.401C350.636 494.122 342.137 499.419 334.368 498.46C329.675 497.881 326.222 495.143 324.607 491.275C323.009 487.45 323.273 482.698 325.555 478.074L452.739 220.38ZM299.599 265.385C303.881 264.833 308.136 265.865 311.158 268.835C317.207 274.778 315.375 285.211 308.391 292.091L233.963 365.418C230.157 369.167 227.99 373.673 227.497 377.833C227.005 381.985 228.175 385.703 230.923 388.166L291.72 442.675C297.974 448.283 296.67 458.615 290.113 465.804C286.648 469.604 282.243 472.031 277.898 472.836C273.557 473.641 269.151 472.836 265.924 469.974L225.673 434.283L185.424 398.592C181.812 395.388 180.237 390.536 180.864 385.305L181.139 383.015C181.762 377.819 184.5 372.622 188.638 368.555L287.3 271.609C290.895 268.076 295.316 265.938 299.599 265.385ZM515.919 242.064C522.522 234.975 533.064 232.815 539.436 238.354L618.847 307.393C622.431 310.509 624.125 315.224 623.697 320.336L623.51 322.575C623.082 327.684 620.58 332.807 616.656 336.817L521.326 434.228C514.407 441.298 503.673 443.087 497.639 436.911C491.828 430.964 493.456 420.72 500.12 413.883L572.544 339.568C579.843 332.078 580.244 322.056 574.753 317.281L514.597 264.962C508.208 259.405 509.369 249.098 515.919 242.064Z" stroke="url(#paint10_linear_6021_240)" stroke-opacity="0.975" stroke-width="3.36"/>
<defs>
<filter id="filter0_f_6021_240" x="43.304" y="170.012" width="934.793" height="740.32" filterUnits="userSpaceOnUse" color-interpolation-filters="sRGB">
<feFlood flood-opacity="0" result="BackgroundImageFix"/>
<feBlend mode="normal" in="SourceGraphic" in2="BackgroundImageFix" result="shape"/>
<feGaussianBlur stdDeviation="4.2" result="effect1_foregroundBlur_6021_240"/>
</filter>
<filter id="filter1_f_6021_240" x="23.9532" y="124.864" width="872.301" height="784.002" filterUnits="userSpaceOnUse" color-interpolation-filters="sRGB">
<feFlood flood-opacity="0" result="BackgroundImageFix"/>
<feBlend mode="normal" in="SourceGraphic" in2="BackgroundImageFix" result="shape"/>
<feGaussianBlur stdDeviation="4.2" result="effect1_foregroundBlur_6021_240"/>
</filter>
<filter id="filter2_f_6021_240" x="18.0988" y="85.2321" width="789.214" height="810.128" filterUnits="userSpaceOnUse" color-interpolation-filters="sRGB">
<feFlood flood-opacity="0" result="BackgroundImageFix"/>
<feBlend mode="normal" in="SourceGraphic" in2="BackgroundImageFix" result="shape"/>
<feGaussianBlur stdDeviation="4.2" result="effect1_foregroundBlur_6021_240"/>
</filter>
<filter id="filter3_d_6021_240" x="10.5056" y="81.7388" width="782.545" height="806.863" filterUnits="userSpaceOnUse" color-interpolation-filters="sRGB">
<feFlood flood-opacity="0" result="BackgroundImageFix"/>
<feColorMatrix in="SourceAlpha" type="matrix" values="0 0 0 0 0 0 0 0 0 0 0 0 0 0 0 0 0 0 127 0" result="hardAlpha"/>
<feOffset dy="6.72"/>
<feGaussianBlur stdDeviation="3.36"/>
<feComposite in2="hardAlpha" operator="out"/>
<feColorMatrix type="matrix" values="0 0 0 0 0 0 0 0 0 0 0 0 0 0 0 0 0 0 0.25 0"/>
<feBlend mode="normal" in2="BackgroundImageFix" result="effect1_dropShadow_6021_240"/>
<feBlend mode="normal" in="SourceGraphic" in2="effect1_dropShadow_6021_240" result="shape"/>
</filter>
<linearGradient id="paint0_linear_6021_240" x1="586.05" y1="189.987" x2="493.102" y2="929.771" gradientUnits="userSpaceOnUse">
<stop stop-color="#1E6BFF"/>
<stop offset="1" stop-color="#0B3FC4"/>
</linearGradient>
<linearGradient id="paint1_linear_6021_240" x1="586.05" y1="189.987" x2="493.102" y2="929.771" gradientUnits="userSpaceOnUse">
<stop stop-color="#1E6BFF"/>
<stop offset="1" stop-color="#0B3FC4"/>
</linearGradient>
<linearGradient id="paint2_linear_6021_240" x1="556.985" y1="130.919" x2="452.261" y2="925.484" gradientUnits="userSpaceOnUse">
<stop stop-color="#4F46FF"/>
<stop offset="1" stop-color="#1B52E0"/>
</linearGradient>
<linearGradient id="paint3_linear_6021_240" x1="556.985" y1="130.919" x2="452.261" y2="925.484" gradientUnits="userSpaceOnUse">
<stop stop-color="#4F46FF"/>
<stop offset="1" stop-color="#1B52E0"/>
</linearGradient>
<linearGradient id="paint4_linear_6021_240" x1="482.836" y1="95.9165" x2="414.133" y2="905.822" gradientUnits="userSpaceOnUse">
<stop stop-color="#7B2FF7"/>
<stop offset="1" stop-color="#3A2FD8"/>
</linearGradient>
<linearGradient id="paint5_linear_6021_240" x1="482.836" y1="95.9165" x2="414.133" y2="905.822" gradientUnits="userSpaceOnUse">
<stop stop-color="#7B2FF7"/>
<stop offset="1" stop-color="#3A2FD8"/>
</linearGradient>
<linearGradient id="paint6_linear_6021_240" x1="402.973" y1="69.0573" x2="374.184" y2="895.111" gradientUnits="userSpaceOnUse">
<stop stop-color="#7B2FF7"/>
<stop offset="1" stop-color="#3A2FD8"/>
</linearGradient>
<linearGradient id="paint7_linear_6021_240" x1="359.952" y1="254.266" x2="473.827" y2="444.921" gradientUnits="userSpaceOnUse">
<stop stop-color="#7B2FF7"/>
<stop offset="0.45272" stop-color="#4F46FF"/>
<stop offset="1" stop-color="#1E6BFF"/>
</linearGradient>
<linearGradient id="paint8_linear_6021_240" x1="359.952" y1="254.266" x2="473.827" y2="444.921" gradientUnits="userSpaceOnUse">
<stop stop-color="#7B2FF7"/>
<stop offset="0.45272" stop-color="#4F46FF"/>
<stop offset="1" stop-color="#1E6BFF"/>
</linearGradient>
<linearGradient id="paint9_linear_6021_240" x1="359.952" y1="254.266" x2="473.827" y2="444.921" gradientUnits="userSpaceOnUse">
<stop stop-color="#7B2FF7"/>
<stop offset="0.45272" stop-color="#4F46FF"/>
<stop offset="1" stop-color="#1E6BFF"/>
</linearGradient>
<linearGradient id="paint10_linear_6021_240" x1="357.629" y1="258.342" x2="460.1" y2="458.223" gradientUnits="userSpaceOnUse">
<stop stop-color="#7B2FF7"/>
<stop offset="0.458327" stop-color="#4F46FF"/>
<stop offset="1" stop-color="#1E6BFF"/>
</linearGradient>
</defs>
</svg>
